<?xml version="1.0" encoding="UTF-8"?><svg id="Layer_2" xmlns="http://www.w3.org/2000/svg" viewBox="0 0 241.52 241.52"><defs><style>.cls-1{fill:#000000;stroke-width:0px;}</style></defs><g id="_ÎÓÈ_1"><path class="cls-1" d="M206.15,35.37C183.34,12.56,153.02,0,120.76,0S58.18,12.56,35.37,35.37C12.56,58.18,0,88.5,0,120.76s12.56,62.58,35.37,85.39c22.81,22.81,53.13,35.37,85.39,35.37s62.58-12.56,85.39-35.37c22.81-22.81,35.37-53.13,35.37-85.39s-12.56-62.58-35.37-85.39ZM13.31,76.57h65.58c3.09-23.89,6.84-47.51,18.08-69.49,6.14-1.27,12.42-2.05,18.79-2.32-.7.65-1.42,1.43-2.16,2.35-4.07,5.04-6.74,10.85-9.02,16.85-5.51,14.49-8.49,29.59-10.65,44.88-.36,2.55-.64,5.11-.97,7.78h55.57c0-.57.03-.88,0-1.18-1.86-15.24-4.48-30.34-9.22-44.99-2.69-8.3-5.81-16.45-11.35-23.37-.72-.9-1.42-1.67-2.11-2.31,6.37.27,12.64,1.06,18.78,2.33,11.25,22,14.99,45.6,18.08,69.46h65.49c5.69,13.84,8.68,28.79,8.68,44.21s-2.98,30.36-8.67,44.19h-65.49c-3.09,23.89-6.84,47.49-18.07,69.47-6.14,1.28-12.42,2.07-18.8,2.34.7-.65,1.42-1.43,2.16-2.34,4.07-5.04,6.74-10.85,9.02-16.85,5.51-14.49,8.49-29.59,10.65-44.88.36-2.55.64-5.11.97-7.78h-55.57c0,.57-.03.88,0,1.18,1.86,15.24,4.48,30.34,9.22,44.99,2.69,8.3,5.81,16.45,11.35,23.37.72.9,1.42,1.67,2.11,2.31-6.36-.27-12.64-1.05-18.77-2.32-11.26-22.01-15-45.61-18.09-69.48H13.32c-5.69-13.84-8.68-28.79-8.68-44.21s2.98-30.36,8.67-44.19Z"/><polygon class="cls-1" points="18.06 94.91 18.06 116.78 24.87 116.78 24.87 88.83 14.27 88.83 14.27 94.91 18.06 94.91"/><path class="cls-1" d="M40.12,116.67c7.97,0,10.76-5.97,10.76-14.25s-2.8-14.17-10.76-14.17-10.76,5.97-10.76,14.17,2.8,14.25,10.76,14.25ZM40.12,94.38c3.87,0,4.33,3.75,4.33,8.04s-.46,8.12-4.33,8.12-4.33-3.68-4.33-8.12.46-8.04,4.33-8.04Z"/><polygon class="cls-1" points="78.22 111.73 69.64 111.73 69.64 89.9 63.09 89.9 63.09 116.78 78.22 116.78 78.22 111.73"/><path class="cls-1" d="M88.06,112.03h10.03l1.61,4.75h6.93l-9.73-26.88h-7.58l-9.73,26.88h6.85l1.61-4.75ZM93.07,97.14l3.33,9.84h-6.62l3.29-9.84Z"/><path class="cls-1" d="M116.13,106.63h1.57l5.59,10.15h7.39l-6.2-10.65c4.14-1.23,5.97-4.4,5.97-7.77,0-4.67-3.29-8.46-9.88-8.46h-10.99v26.88h6.55v-10.15ZM116.13,95.34h4.06c2.45,0,3.6,1.3,3.6,3.29,0,2.11-1.15,3.37-3.6,3.37h-4.06v-6.66Z"/><path class="cls-1" d="M147.15,116.97c7.08,0,11.56-4.63,12.94-9.27v-6.09h-14.25v4.83h8.31c-1,3.03-3.26,4.75-6.51,4.75-4.71,0-7.54-2.91-7.54-7.89,0-4.67,2.8-7.66,7.01-7.66,2.45,0,4.29.96,5.28,2.76h7.24c-1.42-5.51-6.09-8.81-12.52-8.81-8.04,0-13.67,5.67-13.67,13.71s5.67,13.67,13.71,13.67Z"/><polygon class="cls-1" points="180.19 111.54 170.27 111.54 170.27 105.64 179.04 105.64 179.04 100.58 170.27 100.58 170.27 95.14 180.19 95.14 180.19 89.9 163.73 89.9 163.73 116.78 180.19 116.78 180.19 111.54"/><path class="cls-1" d="M193.98,111.8c-1.84,0-3.14-1-3.33-3.06h-6.97c.19,5.44,4.71,8.31,10.49,8.31,6.28,0,9.8-3.75,9.8-8.27,0-9-13.29-6.89-13.29-11.57,0-1.68,1.19-2.49,2.76-2.45,1.76.04,2.99,1.07,3.1,2.8h7.08c-.27-5.13-4.21-8.04-10.07-8.04s-9.8,2.83-9.8,7.93c-.08,9.54,13.36,6.85,13.36,11.83,0,1.57-1.23,2.53-3.14,2.53Z"/><polygon class="cls-1" points="213.66 116.78 220.21 116.78 220.21 95.14 227.33 95.14 227.33 89.9 206.54 89.9 206.54 95.14 213.66 95.14 213.66 116.78"/><path class="cls-1" d="M77.03,145.47c0-3.06-2.03-5.82-5.17-6.47,2.6-.77,4.56-2.87,4.56-6.13,0-4.25-3.26-6.97-8.73-6.97h-12.1v26.88h12.52c5.67,0,8.92-2.87,8.92-7.31ZM62.13,131.15h4.29c2.14,0,3.33,1,3.33,2.83s-1.19,2.8-3.33,2.8h-4.29v-5.63ZM62.13,147.5v-5.94h4.75c2.18,0,3.52,1.11,3.52,3.03s-1.26,2.91-3.45,2.91h-4.83Z"/><path class="cls-1" d="M101.69,134.37c0-4.67-3.29-8.46-9.88-8.46h-10.99v26.88h6.55v-10.15h1.57l5.59,10.15h7.39l-6.2-10.65c4.14-1.23,5.97-4.4,5.97-7.77ZM91.43,138.01h-4.06v-6.66h4.06c2.45,0,3.6,1.3,3.6,3.29,0,2.11-1.15,3.37-3.6,3.37Z"/><path class="cls-1" d="M113.75,125.9l-9.73,26.88h6.85l1.61-4.75h10.03l1.61,4.75h6.93l-9.73-26.88h-7.58ZM114.21,142.98l3.29-9.84,3.33,9.84h-6.62Z"/><polygon class="cls-1" points="151.51 142.56 140.56 125.9 134.01 125.9 134.01 152.79 140.56 152.79 140.56 136.21 151.51 152.79 158.06 152.79 158.06 125.9 151.51 125.9 151.51 142.56"/><path class="cls-1" d="M186.97,139.35c0-8-5.51-13.44-14.09-13.44h-10.07v26.88h10.07c8.58,0,14.09-5.48,14.09-13.44ZM169.36,147.12v-15.62h3.1c4.94,0,7.85,2.91,7.85,7.85s-2.91,7.77-7.85,7.77h-3.1Z"/></g></svg>