<?xml version="1.0" encoding="UTF-8"?><svg id="Layer_2" xmlns="http://www.w3.org/2000/svg" viewBox="0 0 529.38 384.2"><defs><style>.cls-1{fill:#000000;stroke-width:0px;}</style></defs><g id="_ÎÓÈ_1"><path class="cls-1" d="M264.45,338.38c-83.98,0-167.96,0-251.95,0-11.14,0-12.49-1.39-12.49-12.75,0-104.48,0-208.96,0-313.44,0-2-.12-4.04.24-5.98C.98,2.31,3.34.05,7.49.02,8.66,0,9.83,0,10.99,0,180.12,0,349.25,0,518.38,0c9.14,0,10.99,1.86,10.99,11.18,0,105.31,0,210.62,0,315.94,0,9.43-1.86,11.26-11.48,11.26-84.48,0-168.96,0-253.44,0ZM506.74,23.37H22.74v272.06h484V23.37Z"/><path class="cls-1" d="M183.63,358v-15.11h161.97v15.11c2.46,0,4.39,0,6.32,0,22.5,0,45-.02,67.5.01,7.72,0,9.3,1.65,9.32,9.46,0,3.33.06,6.67-.03,10-.11,4.19-2.34,6.43-6.52,6.67-1.5.09-3,.04-4.5.04-102,0-204,0-306,0-10.07,0-11.05-1-11.05-11.22q0-14.97,14.82-14.97c20.67,0,41.33,0,62,0h6.16Z"/><path class="cls-1" d="M317.94,274.18c-19.31-.04-34.38-15.31-34.29-34.74.09-19,15.41-34.19,34.45-34.14,19.15.05,34.59,15.65,34.41,34.79-.17,18.97-15.55,34.13-34.58,34.09ZM325.23,237.93v7.64c-2.46.15-4.93-.34-6.65.58-1.91,1.02-4.09,3.16-4.44,5.12-.63,3.5,4.78,6.93,10.02,6.96,4.85.03,7.55-2.12,7.65-6.54.15-7.15.13-14.31-.04-21.46-.03-1.17-.99-3.09-1.88-3.33-7.59-2.09-15.27-3.87-23.68-5.93v19.93c-2.74.26-5.29-.2-6.89.82-1.92,1.24-4.08,3.65-4.25,5.71-.28,3.44,5.62,6.61,10.56,6.37,4.63-.23,6.98-2.54,7.08-7.18.08-3.74.02-7.49.02-11.72,4.61,1.12,8.45,2.05,12.51,3.04Z"/><path class="cls-1" d="M444.39,142.01c5.54-13.87,11.27-27.67,16.51-41.65,1.56-4.16,3.64-5.66,7.96-5.21,3.77.39,7.62.08,12.11.08-.78,2.16-1.34,3.85-2,5.49-8.74,21.76-17.62,43.47-26.15,65.32-1.49,3.83-3.39,5.24-7.28,4.73-1.96-.26-4.05.24-5.97-.17-1.37-.29-3.24-1.21-3.7-2.34-9.68-23.72-19.2-47.5-28.73-71.28-.17-.42-.02-.96-.02-1.44q16.78-1.56,22.87,13.65c4.38,10.92,8.79,21.83,13.18,32.75.4.02.81.05,1.21.07Z"/><path class="cls-1" d="M365.44,109.52h-21.22v-13.96h58.94v13.91h-21.13v60.93h-16.59v-60.88Z"/><path class="cls-1" d="M162.48,96.16c.11,1.69.25,2.82.26,3.95.01,16.46,0,32.91,0,49.77h-8.58v-39.63c-.33-.1-.65-.2-.98-.31-.65.97-1.41,1.88-1.93,2.92-4.82,9.49-9.49,19.06-14.48,28.47-.92,1.74-2.99,3.68-4.73,3.9-1.27.16-3.4-2.08-4.26-3.72-5.46-10.44-10.68-21.01-16.89-31.41v39.76h-8.93c-.09-.9-.23-1.7-.23-2.49-.01-16.8,0-33.6,0-51.15,4.32,0,8.42-.24,12.46.15,1.18.12,2.55,1.88,3.2,3.19,4.21,8.49,8.24,17.07,12.36,25.61.7,1.45,1.51,2.85,2.66,5.01,4.71-9.78,9.38-18.76,13.35-28.05,2-4.68,4.55-6.86,9.66-6.01,2.1.35,4.3.06,7.05.06Z"/><path class="cls-1" d="M462.91,237.36c0,21.37-17.2,38.6-38.43,38.46-21.1-.14-37.99-17.15-38.04-38.31-.05-21.45,16.92-38.4,38.4-38.35,21.15.06,38.06,17.03,38.07,38.2ZM424.23,269.46c17.76.17,32.36-14,32.55-31.6.19-17.63-14.13-32.35-31.69-32.58-17.57-.23-32.38,14.21-32.53,31.72-.15,17.79,14,32.28,31.67,32.46Z"/><path class="cls-1" d="M236.36,96.83c9.76,0,19.11-.66,28.32.18,9.2.84,12.99,5.01,14.22,12.77,1.52,9.61-1.37,15.92-9.16,20.06-.55.29-1.07.63-1.97,1.16,4.46,6.24,8.77,12.28,13.14,18.39-8.14,2.24-10.3,1.54-14.67-4.63-1.25-1.76-2.84-3.37-3.71-5.31-3.45-7.75-9.6-8.61-17.46-6.79v17.29h-8.7v-53.12ZM245,103.92c0,6.43-.08,12.04.09,17.65.02.81,1.26,2.28,1.9,2.26,5.96-.19,12.04,0,17.81-1.22,4.87-1.03,5.38-5.77,5.16-10.17-.21-4.21-2.26-7.09-6.54-7.5-5.89-.56-11.83-.68-18.42-1.02Z"/><path class="cls-1" d="M227.61,149.67c-8.65,1.55-8.95,1.66-11.71-5.74-1.71-4.57-4-6.59-9.07-6.07-5.11.52-10.34.44-15.46,0-4.43-.37-6.48,1.32-8.03,5.35-2.92,7.61-3.17,7.51-12,6.7.42-1.26.72-2.47,1.21-3.6,6.75-15.39,13.66-30.7,20.19-46.18,1.47-3.5,3.52-4.02,6.81-4.09,3.42-.07,5.25.87,6.67,4.21,6.43,15.16,13.21,30.17,19.84,45.25.59,1.34,1.04,2.74,1.57,4.15ZM209.41,129.52c-3.38-7.65-6.42-14.55-9.99-22.63-3.64,8.37-6.64,15.26-9.85,22.63h19.84Z"/><path class="cls-1" d="M88.4,101.2c-1.7,2.4-3.04,4.28-4.35,6.12-3.7-1.33-7.14-2.97-10.77-3.75-2.67-.57-5.84-.71-8.3.23-2.11.8-4.86,3.35-4.93,5.23-.09,2.18,1.91,5.53,3.91,6.49,4.59,2.21,9.79,3.11,14.64,4.85,5.92,2.12,10.69,5.39,11.26,12.51.69,8.6-3.52,15.04-11.94,17.11-10.97,2.7-20.67-.13-29.69-7.69,1.8-2.2,3.45-4.2,5.26-6.4,2.85,1.63,5.38,3.76,8.28,4.56,4.07,1.12,8.53,2.07,12.59,1.49,2.34-.34,5.48-3.6,5.92-5.98.35-1.89-2.37-5.44-4.58-6.49-4.44-2.13-9.51-2.9-14.23-4.52-5.83-2-10.32-5.36-10.93-12.19-.78-8.77,2.85-14.53,11.4-16.82,9.36-2.51,18.04-.66,26.46,5.26Z"/><path class="cls-1" d="M287,104.28v-7.69h41.43v7.57h-15.99v45.78h-8.99c0-3.29,0-6.55,0-9.81,0-10.15-.24-20.31.11-30.45.16-4.56-1.41-5.87-5.69-5.45-3.43.33-6.91.07-10.86.07Z"/><path class="cls-1" d="M248.36,210.16c-1.07,1.74-1.75,2.88-2.46,4-.72,1.11-1.47,2.2-2.45,3.66-21.18-8.04-42.48-8.27-64.17.1-1.54-2.38-3.04-4.71-4.94-7.64,24.75-10.07,49-9.95,74.02-.11Z"/><path class="cls-1" d="M237.4,227.36c-1.81,2.82-3.25,5.05-4.92,7.66-13.97-4.68-28.02-4.8-42.16.02-1.64-2.54-3.16-4.88-4.93-7.61,17.41-6.64,34.37-6.54,52.01-.07Z"/><path class="cls-1" d="M196.64,244.35c9.84-3.11,19.43-2.93,29.11-.21-2.58,7.39-3.16,7.71-10.2,7.08-2.64-.24-5.55-.74-7.93.07-6.69,2.26-8.76-1.95-10.98-6.94Z"/><path class="cls-1" d="M217.84,267.37c-2.11,1.54-4.06,3.98-6.38,4.4-3.29.59-5.58-1.77-5.68-5.32-.1-3.59,2.14-6.02,5.42-5.61,2.33.29,4.4,2.66,6.58,4.1.02.81.04,1.62.06,2.43Z"/><path class="cls-1" d="M416.5,237.19q-.04-13.18,11.41-6.61c2.3,1.32,4.64,2.56,6.86,3.99,2.51,1.61,3.01,3.77.32,5.47-4.61,2.92-9.38,5.6-14.19,8.18-2.55,1.37-4.21.25-4.37-2.59-.16-2.81-.03-5.63-.03-8.44Z"/><path class="cls-1" d="M142.93,237.34c.03,21.37-17.13,38.58-38.36,38.48-21.09-.1-38.02-17.12-38.09-38.29-.08-21.38,16.99-38.43,38.4-38.37,21.2.06,38.03,16.94,38.05,38.17ZM120.71,224.91c-3.26.8-5.63,1.5-8.06,1.96-6.44,1.22-6.64,1.47-4.89,7.89h15.13c-.77-3.51-1.43-6.49-2.17-9.84ZM88.65,224.89c-.69,3.47-1.31,6.58-1.97,9.91h15.28c1.68-5.21.45-7.89-5.15-7.99-2.41-.04-4.81-1.09-8.16-1.92ZM72.12,234.17c.35.36.7.73,1.06,1.09,2.98-1.45,7.44,2.67,9.18-2.46,3.31-9.78,2.96-10.12-4.75-13.71-1.85,5.08-3.67,10.08-5.49,15.08ZM131.86,218.84c-7.2,3.86-7.9,8.68-3.5,16.06h9.13c-1.97-5.62-3.73-10.63-5.63-16.06ZM137.28,240.96c-.39-.36-.78-.72-1.17-1.08-3.02.96-7.42-2.93-9.07,2.41-3.02,9.8-2.59,10.54,4.9,13.23,1.78-4.85,3.56-9.7,5.34-14.56ZM71.75,239.76c2.19,5.96,4.01,10.91,5.85,15.91,7.69-3.32,8.11-3.85,4.72-13.57-1.72-4.94-6.08-1.5-10.57-2.34ZM86.61,240.08c.79,3.59,1.47,6.69,2.15,9.77,4.86-1.07,9.04-1.99,13.44-2.95v-6.82h-15.59ZM120.77,249.84c.68-3.25,1.32-6.33,2.11-10.13-3.98,0-7.08,0-10.18,0-6.4.02-6.84.67-4.92,7.32,4.14.89,8.29,1.79,12.99,2.81ZM89.54,254.3c4.55,5.4,8.1,9.6,11.64,13.8.36-.3.72-.6,1.08-.9v-15.46c-3.9.79-7.38,1.49-12.72,2.57ZM119.67,254.37c-4.92-1.07-8.47-1.83-12.32-2.67v15.75c.38.2.77.4,1.15.59,3.45-4.23,6.91-8.46,11.16-13.68ZM119.84,220.49c-4.48-5.35-7.95-9.49-11.42-13.62l-1.12.71v15.64c3.94-.85,7.36-1.6,12.54-2.72ZM102.11,223.27v-15.9c-.4-.19-.8-.38-1.19-.57-3.43,4.24-6.85,8.47-11.06,13.67,4.85,1.11,8.27,1.89,12.25,2.8ZM123.27,218.37c1.5-1.05,2.9-2.02,5.08-3.54-4.13-2.7-7.55-4.94-10.98-7.18-.22.32-.44.63-.67.95,2.12,3.15,4.23,6.3,6.56,9.77ZM80.83,259.9c4.49,2.93,8.01,5.22,11.54,7.52.21-.3.42-.6.63-.9-2.2-3.2-4.4-6.4-6.8-9.89-1.48.9-2.83,1.72-5.37,3.26ZM116.46,266.59c.23.29.47.57.7.86,3.54-2.37,7.08-4.73,11.29-7.55-2.32-1.45-3.74-2.34-5.25-3.29-2.44,3.6-4.59,6.79-6.75,9.98ZM81.17,214.81c2.08,1.5,3.44,2.48,5,3.6,2.3-3.47,4.4-6.66,6.51-9.85-.27-.3-.53-.61-.8-.91-3.32,2.22-6.63,4.44-10.71,7.16Z"/></g></svg>