<?xml version="1.0" encoding="UTF-8"?><svg id="Layer_2" xmlns="http://www.w3.org/2000/svg" viewBox="0 0 130.83 231.38"><defs><style>.cls-1{fill:#000000;stroke-width:0px;}</style></defs><g id="_ÎÓÈ_1"><path class="cls-1" d="M130.8,14.85c-.5-8.28-7.37-14.85-15.78-14.85H15.81C7.08,0,0,7.08,0,15.81v199.76c0,8.19,6.23,14.93,14.22,15.73.08.03.16.05.24.08h101.95c.11-.03.22-.06.33-.09,7.61-.82,13.6-7.03,14.07-14.74.01-.03.02-.06.03-.08V14.93s-.02-.05-.03-.08ZM41.91,10.29h46.51c2.24,0,4.06,1.82,4.06,4.06s-1.82,4.06-4.06,4.06h-46.51c-2.24,0-4.06-1.82-4.06-4.06s1.82-4.06,4.06-4.06ZM65.42,216.75c-7.04,0-12.74-5.7-12.74-12.74s5.7-12.74,12.74-12.74,12.74,5.7,12.74,12.74-5.7,12.74-12.74,12.74ZM118.15,177.79H12.79V28.63h105.36v149.16Z"/><path class="cls-1" d="M59.6,83.61c.02-2.64,1.81-4.82,4.38-5.33.71-.14,1.42-.35,2.13-.48,1.56-.29,2.97.1,4.21,1.08,1.08.86,1.66,2,1.95,3.34.72,3.27,1.46,6.53,2.19,9.79.86,3.88,1.72,7.76,2.58,11.64.55,2.49,1.14,4.97,1.66,7.46.64,3.03-1.14,5.77-4.03,6.45-.97.23-1.93.49-2.92.59-2.53.24-4.91-1.54-5.47-4.03-1.09-4.83-2.16-9.67-3.24-14.5-.82-3.65-1.64-7.29-2.46-10.94-.31-1.38-.62-2.76-.91-4.14-.06-.3-.06-.61-.09-.92Z"/><path class="cls-1" d="M45.66,90.85c.08-2.73,1.92-5,4.56-5.58.51-.11,1.01-.23,1.52-.34,3.33-.68,6.26,1.29,6.94,4.61.44,2.15.98,4.28,1.47,6.43.66,2.92,1.32,5.84,1.99,8.76.57,2.52,1.14,5.05,1.73,7.57.73,3.14-1.2,6.23-4.35,6.93-.91.2-1.84.46-2.76.49-1.37.04-2.63-.43-3.71-1.33-1.19-.99-1.74-2.31-2.06-3.79-.75-3.42-1.56-6.82-2.33-10.23-.87-3.82-1.73-7.64-2.58-11.47-.15-.68-.27-1.37-.4-2.05Z"/><path class="cls-1" d="M93.2,107.98c.07,2.25-1.57,4.73-4.44,5.27-1,.19-2.01.48-3.01.5-2.55.07-4.67-1.68-5.23-4.18-1.1-4.94-2.21-9.89-3.32-14.83-.63-2.8-1.26-5.6-1.89-8.39-.69-3.05,1.12-5.89,4.19-6.54.81-.17,1.61-.36,2.42-.51,2.06-.37,4.48.79,5.34,2.69.45.98.7,2.06.94,3.12,1,4.32,1.96,8.65,2.93,12.98.68,3.03,1.34,6.07,2,9.1.06.26.05.53.07.79Z"/><path class="cls-1" d="M48.62,114.39c.02,2.38-1.69,4.82-4.6,5.35-.92.17-1.83.44-2.76.5-2.54.18-4.9-1.57-5.48-4.04-.8-3.4-1.57-6.82-2.35-10.23-.52-2.28-1.06-4.55-1.55-6.84-.36-1.69.07-3.22,1.16-4.55.77-.94,1.77-1.55,2.97-1.78,1.15-.23,2.3-.55,3.46-.59,2.48-.08,4.73,1.9,5.21,4.35.37,1.88.83,3.74,1.26,5.61.43,1.88.85,3.77,1.28,5.65.4,1.77.82,3.55,1.21,5.32.09.41.12.83.17,1.24Z"/><path class="cls-1" d="M78.72,122.18c-.09-2.49,1.77-4.8,4.35-5.34,2.53-.53,5.05-1.15,7.58-1.71.86-.19,1.73-.41,2.6-.43,2.48-.06,4.7,1.72,5.25,4.14.25,1.07.59,2.13.57,3.25-.03,2.27-1.75,4.54-3.98,5.06-3.12.74-6.24,1.46-9.37,2.13-3.13.67-5.96-1.26-6.57-4.42-.13-.69-.29-1.37-.42-2.06-.04-.2,0-.42,0-.63Z"/></g></svg>